<svg width="461" height="751" viewBox="0 0 461 751" fill="none" xmlns="http://www.w3.org/2000/svg">
<rect width="460.8" height="740" fill="#E3F5FC"/>
<g filter="url(#filter0_d_17_35)">
<mask id="path-1-inside-1_17_35" fill="white">
<path fill-rule="evenodd" clip-rule="evenodd" d="M74 102.308L116.902 176.615L202.705 176.615L245.606 102.308L202.705 28L116.902 28L74 102.308ZM214.581 187.816L257.483 262.124L343.286 262.124L386.188 187.816L343.286 113.508L257.483 113.508L214.581 187.816Z"/>
</mask>
<path fill-rule="evenodd" clip-rule="evenodd" d="M74 102.308L116.902 176.615L202.705 176.615L245.606 102.308L202.705 28L116.902 28L74 102.308ZM214.581 187.816L257.483 262.124L343.286 262.124L386.188 187.816L343.286 113.508L257.483 113.508L214.581 187.816Z" fill="#E3E9FC"/>
<path d="M116.902 176.615L116.036 177.115L116.324 177.615L116.902 177.615L116.902 176.615ZM74 102.308L73.134 101.808L72.8453 102.308L73.134 102.808L74 102.308ZM202.705 176.615L202.705 177.615L203.282 177.615L203.571 177.115L202.705 176.615ZM245.606 102.308L246.472 102.808L246.761 102.308L246.472 101.808L245.606 102.308ZM202.705 28L203.571 27.5L203.282 27L202.705 27L202.705 28ZM116.902 28L116.902 27L116.324 27L116.036 27.5L116.902 28ZM257.483 262.124L256.617 262.624L256.906 263.124L257.483 263.124L257.483 262.124ZM214.581 187.816L213.715 187.316L213.427 187.816L213.715 188.316L214.581 187.816ZM343.286 262.124L343.286 263.124L343.863 263.124L344.152 262.624L343.286 262.124ZM386.188 187.816L387.054 188.316L387.342 187.816L387.054 187.316L386.188 187.816ZM343.286 113.508L344.152 113.008L343.863 112.508L343.286 112.508L343.286 113.508ZM257.483 113.508L257.483 112.508L256.906 112.508L256.617 113.008L257.483 113.508ZM117.768 176.115L74.866 101.808L73.134 102.808L116.036 177.115L117.768 176.115ZM202.705 175.615L116.902 175.615L116.902 177.615L202.705 177.615L202.705 175.615ZM244.74 101.808L201.839 176.115L203.571 177.115L246.472 102.808L244.74 101.808ZM201.839 28.5L244.74 102.808L246.472 101.808L203.571 27.5L201.839 28.5ZM116.902 29L202.705 29L202.705 27L116.902 27L116.902 29ZM74.866 102.808L117.768 28.5L116.036 27.5L73.134 101.808L74.866 102.808ZM258.349 261.624L215.447 187.316L213.715 188.316L256.617 262.624L258.349 261.624ZM343.286 261.124L257.483 261.124L257.483 263.124L343.286 263.124L343.286 261.124ZM385.322 187.316L342.42 261.624L344.152 262.624L387.054 188.316L385.322 187.316ZM342.42 114.008L385.322 188.316L387.054 187.316L344.152 113.008L342.42 114.008ZM257.483 114.508L343.286 114.508L343.286 112.508L257.483 112.508L257.483 114.508ZM215.447 188.316L258.349 114.008L256.617 113.008L213.715 187.316L215.447 188.316Z" fill="#DCDAF2" mask="url(#path-1-inside-1_17_35)"/>
</g>
<g filter="url(#filter1_d_17_35)">
<mask id="path-3-inside-2_17_35" fill="white">
<path fill-rule="evenodd" clip-rule="evenodd" d="M386.188 550.308L343.286 624.615L257.483 624.615L214.581 550.308L257.483 476L343.286 476L386.188 550.308ZM245.606 635.816L202.705 710.124L116.902 710.124L74 635.816L116.902 561.508L202.705 561.508L245.606 635.816Z"/>
</mask>
<path fill-rule="evenodd" clip-rule="evenodd" d="M386.188 550.308L343.286 624.615L257.483 624.615L214.581 550.308L257.483 476L343.286 476L386.188 550.308ZM245.606 635.816L202.705 710.124L116.902 710.124L74 635.816L116.902 561.508L202.705 561.508L245.606 635.816Z" fill="#E3E9FC"/>
<path d="M343.286 624.615L344.152 625.115L343.863 625.615L343.286 625.615L343.286 624.615ZM386.188 550.308L387.054 549.808L387.342 550.308L387.054 550.808L386.188 550.308ZM257.483 624.615L257.483 625.615L256.906 625.615L256.617 625.115L257.483 624.615ZM214.581 550.308L213.715 550.808L213.427 550.308L213.715 549.808L214.581 550.308ZM257.483 476L256.617 475.5L256.906 475L257.483 475L257.483 476ZM343.286 476L343.286 475L343.864 475L344.152 475.5L343.286 476ZM202.705 710.124L203.571 710.624L203.282 711.124L202.705 711.124L202.705 710.124ZM245.606 635.816L246.472 635.316L246.761 635.816L246.472 636.316L245.606 635.816ZM116.902 710.124L116.902 711.124L116.324 711.124L116.036 710.624L116.902 710.124ZM74 635.816L73.134 636.316L72.8453 635.816L73.134 635.316L74 635.816ZM116.902 561.508L116.036 561.008L116.324 560.508L116.902 560.508L116.902 561.508ZM202.705 561.508L202.705 560.508L203.282 560.508L203.571 561.008L202.705 561.508ZM342.42 624.115L385.322 549.808L387.054 550.808L344.152 625.115L342.42 624.115ZM257.483 623.615L343.286 623.615L343.286 625.615L257.483 625.615L257.483 623.615ZM215.447 549.808L258.349 624.115L256.617 625.115L213.715 550.808L215.447 549.808ZM258.349 476.5L215.447 550.808L213.715 549.808L256.617 475.5L258.349 476.5ZM343.286 477L257.483 477L257.483 475L343.286 475L343.286 477ZM385.322 550.808L342.42 476.5L344.152 475.5L387.054 549.808L385.322 550.808ZM201.839 709.624L244.74 635.316L246.472 636.316L203.571 710.624L201.839 709.624ZM116.902 709.124L202.705 709.124L202.705 711.124L116.902 711.124L116.902 709.124ZM74.866 635.316L117.768 709.624L116.036 710.624L73.134 636.316L74.866 635.316ZM117.768 562.008L74.866 636.316L73.134 635.316L116.036 561.008L117.768 562.008ZM202.705 562.508L116.902 562.508L116.902 560.508L202.705 560.508L202.705 562.508ZM244.74 636.316L201.839 562.008L203.571 561.008L246.472 635.316L244.74 636.316Z" fill="#DCDAF2" mask="url(#path-3-inside-2_17_35)"/>
</g>
<defs>
<filter id="filter0_d_17_35" x="59" y="28" width="342.188" height="274.124" filterUnits="userSpaceOnUse" color-interpolation-filters="sRGB">
<feFlood flood-opacity="0" result="BackgroundImageFix"/>
<feColorMatrix in="SourceAlpha" type="matrix" values="0 0 0 0 0 0 0 0 0 0 0 0 0 0 0 0 0 0 127 0" result="hardAlpha"/>
<feOffset dy="25"/>
<feGaussianBlur stdDeviation="7.5"/>
<feComposite in2="hardAlpha" operator="out"/>
<feColorMatrix type="matrix" values="0 0 0 0 0 0 0 0 0 0 0 0 0 0 0 0 0 0 0.25 0"/>
<feBlend mode="normal" in2="BackgroundImageFix" result="effect1_dropShadow_17_35"/>
<feBlend mode="normal" in="SourceGraphic" in2="effect1_dropShadow_17_35" result="shape"/>
</filter>
<filter id="filter1_d_17_35" x="59" y="476" width="342.188" height="274.124" filterUnits="userSpaceOnUse" color-interpolation-filters="sRGB">
<feFlood flood-opacity="0" result="BackgroundImageFix"/>
<feColorMatrix in="SourceAlpha" type="matrix" values="0 0 0 0 0 0 0 0 0 0 0 0 0 0 0 0 0 0 127 0" result="hardAlpha"/>
<feOffset dy="25"/>
<feGaussianBlur stdDeviation="7.5"/>
<feComposite in2="hardAlpha" operator="out"/>
<feColorMatrix type="matrix" values="0 0 0 0 0 0 0 0 0 0 0 0 0 0 0 0 0 0 0.25 0"/>
<feBlend mode="normal" in2="BackgroundImageFix" result="effect1_dropShadow_17_35"/>
<feBlend mode="normal" in="SourceGraphic" in2="effect1_dropShadow_17_35" result="shape"/>
</filter>
</defs>
</svg>
